<svg t="1629170933545" class="icon" viewBox="0 0 1024 1024" version="1.1" xmlns="http://www.w3.org/2000/svg" p-id="4476" width="200" height="200"><path d="M512 512m-512 0a512 512 0 1 0 1024 0 512 512 0 1 0-1024 0Z" fill="#FCD063" p-id="4477"></path><path d="M840.512 119.488C915.008 208.416 960 322.912 960 448c0 282.752-229.248 512-512 512-125.088 0-239.584-44.992-328.512-119.488C213.408 952.64 354.304 1024 512 1024c282.752 0 512-229.248 512-512 0-157.696-71.36-298.592-183.488-392.512z" fill="#F7B84E" p-id="4478"></path><path d="M320 448m-64 0a64 64 0 1 0 128 0 64 64 0 1 0-128 0Z" fill="#C98E3F" p-id="4479"></path><path d="M320 416c29.792 0 54.592 20.448 61.728 48 1.344-5.152 2.272-10.432 2.272-16 0-35.328-28.672-64-64-64s-64 28.672-64 64c0 5.568 0.928 10.848 2.272 16 7.136-27.552 31.936-48 61.728-48z" fill="#AB7934" p-id="4480"></path><path d="M704 448m-64 0a64 64 0 1 0 128 0 64 64 0 1 0-128 0Z" fill="#C98E3F" p-id="4481"></path><path d="M816 560m-48 0a48 48 0 1 0 96 0 48 48 0 1 0-96 0Z" fill="#F7B84E" p-id="4482"></path><path d="M208 560m-48 0a48 48 0 1 0 96 0 48 48 0 1 0-96 0Z" fill="#F7B84E" p-id="4483"></path><path d="M704 416c29.792 0 54.592 20.448 61.76 48 1.312-5.152 2.24-10.432 2.24-16 0-35.328-28.672-64-64-64s-64 28.672-64 64c0 5.568 0.928 10.848 2.24 16 7.168-27.552 31.968-48 61.76-48z" fill="#AB7934" p-id="4484"></path><path d="M713.024 41.088c48.224 20.608 92.48 48.64 131.712 82.272 60.224 12.032 97.632 25.856 111.52 36.64h-0.032 0.032c-31.264 24.256-181.12 64-444.256 64S99.008 184.256 67.744 160h0.032-0.032c13.888-10.784 51.296-24.608 111.488-36.64 39.264-33.664 83.488-61.664 131.744-82.272C166.848 53.952 0 85.024 0 160c0 124.416 459.584 128 512 128s512-3.584 512-128c0-74.976-166.88-106.048-310.976-118.912z" fill="#E2E5E7" p-id="4485"></path><path d="M686.56 608H337.44c-9.632 0-17.44 7.168-17.44 16 0 97.056 86.112 176 192 176s192-78.944 192-176c0-8.832-7.808-16-17.44-16z" fill="#C98E3F" p-id="4486"></path><path d="M702.72 640c0.576-5.312 1.28-10.56 1.28-16 0-8.832-7.808-16-17.44-16H337.44c-9.632 0-17.44 7.168-17.44 16 0 5.44 0.704 10.688 1.28 16h381.44z" fill="#AB7934" p-id="4487"></path></svg>
