<svg t="1628651112204" class="icon" viewBox="0 0 1024 1024" version="1.1" xmlns="http://www.w3.org/2000/svg" p-id="1488" width="32" height="32"><path d="M512 64l-405.333333 213.333333v85.333334h810.666666v-85.333334" p-id="1489"></path><path d="M85.333333 853.333333m42.666667 0l768 0q42.666667 0 42.666667 42.666667l0 0q0 42.666667-42.666667 42.666667l-768 0q-42.666667 0-42.666667-42.666667l0 0q0-42.666667 42.666667-42.666667Z" p-id="1490"></path><path d="M149.333333 448m42.666667 0l0 0q42.666667 0 42.666667 42.666667l0 256q0 42.666667-42.666667 42.666666l0 0q-42.666667 0-42.666667-42.666666l0-256q0-42.666667 42.666667-42.666667Z" p-id="1491"></path><path d="M362.666667 448m42.666666 0l0 0q42.666667 0 42.666667 42.666667l0 256q0 42.666667-42.666667 42.666666l0 0q-42.666667 0-42.666666-42.666666l0-256q0-42.666667 42.666666-42.666667Z" p-id="1492"></path><path d="M789.333333 448m42.666667 0l0 0q42.666667 0 42.666667 42.666667l0 256q0 42.666667-42.666667 42.666666l0 0q-42.666667 0-42.666667-42.666666l0-256q0-42.666667 42.666667-42.666667Z" p-id="1493"></path><path d="M576 448m42.666667 0l0 0q42.666667 0 42.666666 42.666667l0 256q0 42.666667-42.666666 42.666666l0 0q-42.666667 0-42.666667-42.666666l0-256q0-42.666667 42.666667-42.666667Z" p-id="1494"></path></svg>
